{"title":"Song.of.the.Sea.2014.LIMITED.1080p.BluRay.X264-AMIABLE[rarbg]","uid":11761424,"size":4704180218,"categoryP":"video","categoryS":"hd___movies","magnet":"?xt=urn:btih:2e2107cd5eca88c01b54b535bbfe14ffc1b4e68d&amp;dn=Song.of.the.Sea.2014.LIMITED.1080p.BluRay.X264-AMIABLE%5Brarbg%5D&amp;tr=udp%3A%2F%2Ftracker.openbittorrent.com%3A80&amp;tr=udp%3A%2F%2Fopen.demonii.com%3A1337&amp;tr=udp%3A%2F%2Ftracker.coppersurfer.tk%3A6969&amp;tr=udp%3A%2F%2Fexodus.desync.com%3A6969","seeders":33,"leechers":8,"uploader":"vickey1992","files":6,"time":1426599810,"description":"MediaInfo\n\nVideo\nID : 1\nFormat : AVC\nFormat/Info : Advanced Video Codec\nFormat profile : &lt;a class=&quot;__cf_email__&quot; href=&quot;/cdn-cgi/l/email-protection&quot; data-cfemail=&quot;a3ebcac4cbe3ef978d92&quot;&gt;[email&amp;#160;protected]&lt;/a&gt;&lt;script cf-hash='f9e31' type=&quot;text/javascript&quot;&gt;\n/* &lt;![CDATA[ */!function(){try{var t=&quot;currentScript&quot;in document?document.currentScript:function(){for(var t=document.getElementsByTagName(&quot;script&quot;),e=t.length;e--;)if(t[e].getAttribute(&quot;cf-hash&quot;))return t[e]}();if(t&amp;&amp;t.previousSibling){var e,r,n,i,c=t.previousSibling,a=c.getAttribute(&quot;data-cfemail&quot;);if(a){for(e=&quot;&quot;,r=parseInt(a.substr(0,2),16),n=2;a.length-n;n+=2)i=parseInt(a.substr(n,2),16)^r,e+=String.fromCharCode(i);e=document.createTextNode(e),c.parentNode.replaceChild(e,c)}}}catch(u){}}();/* ]]&gt; */&lt;/script&gt;\nFormat settings, CABAC : Yes\nFormat settings, ReFrames : 4 frames\nCodec ID : V_MPEG4/ISO/AVC\nDuration : 1h 33mn\nBit rate : 5 146 Kbps\nWidth : 1 920 pixels\nHeight : 1 040 pixels\nDisplay aspect ratio : 1.85:1\nFrame rate mode : Constant\nFrame rate : 23.976 fps\nColor space : YUV\nChroma subsampling : 4:2:0\nBit depth : 8 bits\nScan type : Progressive\nBits/(Pixel*Frame) : 0.107\nStream size : 3.29 GiB (75%)\nWriting library : x264 core 146 r2538 121396c\nEncoding settings : cabac=1 / ref=4 / deblock=1:-3:-3 / analyse=0x3:0x113 / me=umh / subme=8 / psy=1 / psy_rd=1.00:0.00 / mixed_ref=1 / me_range=16 / chroma_me=1 / trellis=1 / 8x8dct=1 / cqm=0 / deadzone=21,11 / fast_pskip=1 / chroma_qp_offset=-2 / threads=12 / lookahead_threads=2 / sliced_threads=0 / nr=0 / decimate=1 / interlaced=0 / bluray_compat=0 / constrained_intra=0 / bframes=3 / b_pyramid=2 / b_adapt=2 / b_bias=0 / direct=3 / weightb=1 / open_gop=0 / weightp=2 / keyint=240 / keyint_min=24 / scenecut=40 / intra_refresh=0 / rc_lookahead=50 / rc=2pass / mbtree=1 / bitrate=5146 / ratetol=1.0 / qcomp=0.60 / qpmin=0 / qpmax=69 / qpstep=4 / cplxblur=20.0 / qblur=0.5 / ip_ratio=1.40 / aq=1:1.00\nLanguage : English\nDefault : Yes\nForced : No\n\nAudio\nID : 2\nFormat : DTS\nFormat/Info : Digital Theater Systems\nMode : 16\nFormat settings, Endianness : Big\nCodec ID : A_DTS\nDuration : 1h 33mn\nBit rate mode : Constant\nBit rate : 1 509 Kbps\nChannel(s) : 6 channels\nChannel positions : Front: L C R, Side: L R, LFE\nSampling rate : 48.0 KHz\nBit depth : 24 bits\nCompression mode : Lossy\nStream size : 1 014 MiB (23%)\nLanguage : English\nDefault : Yes\nForced : No\n\nText #1\nID : 3\nFormat : UTF-8\nCodec ID : S_TEXT/UTF8\nCodec ID/Info : UTF-8 Plain Text\nTitle : SDH\nLanguage : English\nDefault : No\nForced : No\n\nText #2\nID : 4\nFormat : UTF-8\nCodec ID : S_TEXT/UTF8\nCodec ID/Info : UTF-8 Plain Text\nLanguage : English\nDefault : No\nForced : No\n\nMenu\n00:00:00.000 : en:00:00:00.000\n00:04:26.057 : en:00:04:26.057\n00:09:28.943 : en:00:09:28.943\n00:13:23.761 : en:00:13:23.761\n00:18:49.587 : en:00:18:49.587\n00:23:29.742 : en:00:23:29.742\n00:26:30.339 : en:00:26:30.339\n00:31:07.157 : en:00:31:07.157\n00:35:10.400 : en:00:35:10.400\n00:39:53.308 : en:00:39:53.308\n00:44:19.115 : en:00:44:19.115\n00:48:53.055 : en:00:48:53.055\n00:52:21.347 : en:00:52:21.347\n00:56:24.673 : en:00:56:24.673\n00:59:58.094 : en:00:59:58.094\n01:04:53.223 : en:01:04:53.223\n01:08:52.462 : en:01:08:52.462\n01:12:59.709 : en:01:12:59.709\n01:17:48.289 : en:01:17:48.289\n01:26:47.244 : en:01:26:47.244","torrent":{"xt":"urn:btih:2e2107cd5eca88c01b54b535bbfe14ffc1b4e68d","amp;dn":"Song.of.the.Sea.2014.LIMITED.1080p.BluRay.X264-AMIABLE%5Brarbg%5D","amp;tr":["udp%3A%2F%2Ftracker.openbittorrent.com%3A80","udp%3A%2F%2Fopen.demonii.com%3A1337","udp%3A%2F%2Ftracker.coppersurfer.tk%3A6969","udp%3A%2F%2Fexodus.desync.com%3A6969"],"infoHash":"2e2107cd5eca88c01b54b535bbfe14ffc1b4e68d","infoHashBuffer":{"type":"Buffer","data":[46,33,7,205,94,202,136,192,27,84,181,53,187,254,20,255,193,180,230,141]},"announce":[],"urlList":[]}}